<mxfile host="app.diagrams.net" modified="2023-11-08T21:08:19.391Z" agent="Mozilla/5.0 (Macintosh; Intel Mac OS X 10_15_7) AppleWebKit/605.1.15 (KHTML, like Gecko) Version/17.0 Safari/605.1.15" version="22.0.8" etag="j9ibCmJOPlsl-00jwNq3" type="github">
  <diagram name="Page-1" id="VPpTAmgBIA0hATYb-4KV">
    <mxGraphModel>
      <root>
        <mxCell id="0" />
        <mxCell id="1" parent="0" />
      </root>
    </mxGraphModel>
  </diagram>
</mxfile>
